<svg viewBox="0 0 1440 320" xmlns="http://www.w3.org/2000/svg">
  <defs>
    <linearGradient id="wave-gradient" x1="0%" y1="0%" x2="100%" y2="0%">
      <stop offset="0%" style="stop-color: #fbbf24; stop-opacity: 1" />
      <stop offset="100%" style="stop-color: #f97316; stop-opacity: 1" />
    </linearGradient>
  </defs>
  <path fill="url(#wave-gradient)" fill-opacity="0.15" d="M0,160L48,170.7C96,181,192,203,288,202.7C384,203,480,181,576,154.7C672,128,768,96,864,112C960,128,1056,192,1152,208C1248,224,1344,192,1392,176L1440,160L1440,320L1392,320C1344,320,1248,320,1152,320C1056,320,960,320,864,320C768,320,672,320,576,320C480,320,384,320,288,320C192,320,96,320,48,320L0,320Z"></path>
  <path fill="url(#wave-gradient)" fill-opacity="0.1" d="M0,224L48,213.3C96,203,192,181,288,176C384,171,480,181,576,197.3C672,213,768,235,864,240C960,245,1056,235,1152,208C1248,181,1344,139,1392,117.3L1440,96L1440,320L1392,320C1344,320,1248,320,1152,320C1056,320,960,320,864,320C768,320,672,320,576,320C480,320,384,320,288,320C192,320,96,320,48,320L0,320Z"></path>
</svg>
